<svg width="220" height="60" viewBox="0 0 220 60" fill="none" xmlns="http://www.w3.org/2000/svg">
<path d="M72.0124 38.5455V39.9812H67.6452V48H65.9325V38.5455H72.0124ZM73.4608 38.5455H75.1597V44.9901H75.2474L79.6931 38.5455H81.2304V48H79.5177V41.56H79.4392L74.9797 48H73.4608V38.5455ZM82.4826 50.2805V46.6012H83.1151C83.3274 46.4319 83.5259 46.1934 83.7106 45.8857C83.8952 45.5779 84.0522 45.1562 84.1815 44.6207C84.3107 44.0852 84.4 43.3928 84.4492 42.5433L84.6985 38.5455H90.7415V46.6012H91.794V50.2713H90.1506V48H84.1261V50.2805H82.4826ZM85.1094 46.6012H89.098V39.9812H86.2404L86.0927 42.5433C86.0527 43.1866 85.988 43.7621 85.8988 44.2699C85.8095 44.7777 85.6972 45.2255 85.5618 45.6133C85.4264 45.998 85.2756 46.3273 85.1094 46.6012ZM104.128 38.5455V48H102.429V39.9673H98.2929V48H96.594V38.5455H104.128ZM114.625 43.2727C114.625 44.2914 114.434 45.1639 114.052 45.8903C113.674 46.6135 113.157 47.1675 112.501 47.5522C111.849 47.9369 111.109 48.1293 110.281 48.1293C109.453 48.1293 108.711 47.9369 108.056 47.5522C107.403 47.1644 106.886 46.6089 106.504 45.8857C106.126 45.1593 105.937 44.2884 105.937 43.2727C105.937 42.254 106.126 41.383 106.504 40.6598C106.886 39.9335 107.403 39.378 108.056 38.9933C108.711 38.6085 109.453 38.4162 110.281 38.4162C111.109 38.4162 111.849 38.6085 112.501 38.9933C113.157 39.378 113.674 39.9335 114.052 40.6598C114.434 41.383 114.625 42.254 114.625 43.2727ZM112.903 43.2727C112.903 42.5556 112.791 41.9509 112.566 41.4585C112.344 40.9629 112.037 40.589 111.643 40.3366C111.249 40.0812 110.795 39.9535 110.281 39.9535C109.767 39.9535 109.313 40.0812 108.919 40.3366C108.525 40.589 108.216 40.9629 107.991 41.4585C107.769 41.9509 107.659 42.5556 107.659 43.2727C107.659 43.9898 107.769 44.5961 107.991 45.0916C108.216 45.584 108.525 45.958 108.919 46.2134C109.313 46.4658 109.767 46.592 110.281 46.592C110.795 46.592 111.249 46.4658 111.643 46.2134C112.037 45.958 112.344 45.584 112.566 45.0916C112.791 44.5961 112.903 43.9898 112.903 43.2727ZM125.133 48L122.022 43.8683H121.181V48H119.469V38.5455H121.181V42.4325H121.611L124.972 38.5455H127.081L123.347 42.8572L127.243 48H125.133ZM128.406 48V38.5455H131.952C132.678 38.5455 133.287 38.6809 133.78 38.9517C134.275 39.2225 134.649 39.5949 134.902 40.0689C135.157 40.5398 135.285 41.0753 135.285 41.6754C135.285 42.2817 135.157 42.8203 134.902 43.2912C134.646 43.7621 134.269 44.1329 133.771 44.4038C133.272 44.6715 132.658 44.8054 131.929 44.8054H129.579V43.3974H131.698C132.122 43.3974 132.47 43.3235 132.741 43.1758C133.012 43.0281 133.212 42.8249 133.341 42.5664C133.474 42.3079 133.54 42.0109 133.54 41.6754C133.54 41.34 133.474 41.0445 133.341 40.7891C133.212 40.5336 133.01 40.3351 132.736 40.1935C132.466 40.0489 132.116 39.9766 131.688 39.9766H130.119V48H128.406ZM136.933 48H135.105L138.433 38.5455H140.547L143.881 48H142.052L139.527 40.4844H139.453L136.933 48ZM136.993 44.293H141.979V45.6687H136.993V44.293ZM152.774 41.7354H151.048C150.998 41.4523 150.908 41.2015 150.775 40.983C150.643 40.7614 150.478 40.5736 150.281 40.4197C150.084 40.2659 149.86 40.1504 149.607 40.0735C149.358 39.9935 149.089 39.9535 148.799 39.9535C148.285 39.9535 147.83 40.0827 147.433 40.3413C147.036 40.5967 146.725 40.9722 146.5 41.4677C146.276 41.9601 146.163 42.5618 146.163 43.2727C146.163 43.996 146.276 44.6054 146.5 45.1009C146.728 45.5933 147.039 45.9657 147.433 46.218C147.83 46.4673 148.284 46.592 148.795 46.592C149.078 46.592 149.343 46.555 149.589 46.4812C149.838 46.4042 150.061 46.2919 150.258 46.1442C150.458 45.9964 150.626 45.8149 150.761 45.5994C150.9 45.384 150.995 45.1378 151.048 44.8608L152.774 44.87C152.71 45.3194 152.57 45.741 152.354 46.1349C152.142 46.5289 151.863 46.8767 151.519 47.1783C151.174 47.4768 150.771 47.7107 150.309 47.88C149.847 48.0462 149.335 48.1293 148.772 48.1293C147.941 48.1293 147.199 47.9369 146.547 47.5522C145.894 47.1675 145.38 46.612 145.005 45.8857C144.629 45.1593 144.441 44.2884 144.441 43.2727C144.441 42.254 144.631 41.383 145.009 40.6598C145.388 39.9335 145.903 39.378 146.556 38.9933C147.208 38.6085 147.947 38.4162 148.772 38.4162C149.298 38.4162 149.787 38.4901 150.24 38.6378C150.692 38.7855 151.095 39.0025 151.449 39.2887C151.803 39.5719 152.094 39.9196 152.322 40.332C152.553 40.7414 152.703 41.2092 152.774 41.7354ZM154.343 48V38.5455H156.055V42.5479H160.436V38.5455H162.154V48H160.436V43.9837H156.055V48H154.343ZM172.465 43.2727C172.465 44.2914 172.274 45.1639 171.892 45.8903C171.514 46.6135 170.997 47.1675 170.341 47.5522C169.689 47.9369 168.948 48.1293 168.121 48.1293C167.293 48.1293 166.551 47.9369 165.895 47.5522C165.243 47.1644 164.726 46.6089 164.344 45.8857C163.966 45.1593 163.776 44.2884 163.776 43.2727C163.776 42.254 163.966 41.383 164.344 40.6598C164.726 39.9335 165.243 39.378 165.895 38.9933C166.551 38.6085 167.293 38.4162 168.121 38.4162C168.948 38.4162 169.689 38.6085 170.341 38.9933C170.997 39.378 171.514 39.9335 171.892 40.6598C172.274 41.383 172.465 42.254 172.465 43.2727ZM170.743 43.2727C170.743 42.5556 170.63 41.9509 170.406 41.4585C170.184 40.9629 169.876 40.589 169.482 40.3366C169.088 40.0812 168.635 39.9535 168.121 39.9535C167.607 39.9535 167.153 40.0812 166.759 40.3366C166.365 40.589 166.055 40.9629 165.831 41.4585C165.609 41.9509 165.498 42.5556 165.498 43.2727C165.498 43.9898 165.609 44.5961 165.831 45.0916C166.055 45.584 166.365 45.958 166.759 46.2134C167.153 46.4658 167.607 46.592 168.121 46.592C168.635 46.592 169.088 46.4658 169.482 46.2134C169.876 45.958 170.184 45.584 170.406 45.0916C170.63 44.5961 170.743 43.9898 170.743 43.2727ZM181.064 48H179.347V39.9766H177.777C177.352 39.9766 177.003 40.0397 176.729 40.1658C176.458 40.2889 176.257 40.4705 176.124 40.7106C175.995 40.9476 175.93 41.2338 175.93 41.5692C175.93 41.9047 175.995 42.1879 176.124 42.4187C176.254 42.6464 176.454 42.8203 176.725 42.9403C176.998 43.0573 177.346 43.1158 177.768 43.1158H180.067V44.5376H177.537C176.811 44.5376 176.198 44.4176 175.7 44.1776C175.201 43.9344 174.823 43.5913 174.564 43.1481C174.309 42.7018 174.181 42.1755 174.181 41.5692C174.181 40.966 174.307 40.4382 174.559 39.9858C174.815 39.5303 175.19 39.1764 175.686 38.924C176.181 38.6716 176.791 38.5455 177.514 38.5455H181.064V48ZM176.175 43.7159H178.045L175.746 48H173.835L176.175 43.7159ZM182.92 48V38.5455H186.465C187.192 38.5455 187.801 38.6809 188.293 38.9517C188.789 39.2225 189.163 39.5949 189.415 40.0689C189.671 40.5398 189.798 41.0753 189.798 41.6754C189.798 42.2817 189.671 42.8203 189.415 43.2912C189.16 43.7621 188.783 44.1329 188.284 44.4038C187.786 44.6715 187.172 44.8054 186.442 44.8054H184.092V43.3974H186.211C186.636 43.3974 186.984 43.3235 187.255 43.1758C187.526 43.0281 187.726 42.8249 187.855 42.5664C187.987 42.3079 188.053 42.0109 188.053 41.6754C188.053 41.34 187.987 41.0445 187.855 40.7891C187.726 40.5336 187.524 40.3351 187.25 40.1935C186.979 40.0489 186.63 39.9766 186.202 39.9766H184.633V48H182.92ZM199.379 41.7354H197.652C197.603 41.4523 197.512 41.2015 197.38 40.983C197.247 40.7614 197.083 40.5736 196.886 40.4197C196.689 40.2659 196.464 40.1504 196.212 40.0735C195.963 39.9935 195.693 39.9535 195.404 39.9535C194.89 39.9535 194.434 40.0827 194.037 40.3413C193.64 40.5967 193.33 40.9722 193.105 41.4677C192.88 41.9601 192.768 42.5618 192.768 43.2727C192.768 43.996 192.88 44.6054 193.105 45.1009C193.333 45.5933 193.644 45.9657 194.037 46.218C194.434 46.4673 194.888 46.592 195.399 46.592C195.682 46.592 195.947 46.555 196.193 46.4812C196.443 46.4042 196.666 46.2919 196.863 46.1442C197.063 45.9964 197.231 45.8149 197.366 45.5994C197.504 45.384 197.6 45.1378 197.652 44.8608L199.379 44.87C199.314 45.3194 199.174 45.741 198.959 46.1349C198.746 46.5289 198.468 46.8767 198.123 47.1783C197.778 47.4768 197.375 47.7107 196.914 47.88C196.452 48.0462 195.939 48.1293 195.376 48.1293C194.545 48.1293 193.804 47.9369 193.151 47.5522C192.499 47.1675 191.985 46.612 191.609 45.8857C191.234 45.1593 191.046 44.2884 191.046 43.2727C191.046 42.254 191.235 41.383 191.614 40.6598C191.992 39.9335 192.508 39.378 193.16 38.9933C193.813 38.6085 194.551 38.4162 195.376 38.4162C195.903 38.4162 196.392 38.4901 196.844 38.6378C197.297 38.7855 197.7 39.0025 198.054 39.2887C198.408 39.5719 198.699 39.9196 198.926 40.332C199.157 40.7414 199.308 41.2092 199.379 41.7354ZM206.612 48L203.5 43.8683H202.66V48H200.947V38.5455H202.66V42.4325H203.089L206.45 38.5455H208.56L204.825 42.8572L208.721 48H206.612ZM210.729 48.1293V46.6889H211.27C211.513 46.6889 211.713 46.6535 211.87 46.5827C212.027 46.512 212.153 46.4104 212.248 46.2781C212.347 46.1457 212.428 45.9918 212.493 45.8164L212.618 45.4979L209.238 38.5455H211.03L213.384 43.6051L215.42 38.5455H217.183L213.924 46.255C213.773 46.5874 213.599 46.8967 213.402 47.1829C213.205 47.466 212.948 47.6953 212.631 47.8707C212.318 48.0431 211.908 48.1293 211.403 48.1293H210.729Z" fill="#222222"/>
<path d="M65.7812 14.3871V10.8182H81.1488V14.3871H75.6357V29H71.3033V14.3871H65.7812ZM99.6258 19.9091C99.6258 21.9096 99.2411 23.6052 98.4717 24.9961C97.7023 26.387 96.6606 27.4434 95.3467 28.1655C94.0387 28.8875 92.5709 29.2486 90.9433 29.2486C89.3097 29.2486 87.839 28.8846 86.531 28.1566C85.223 27.4286 84.1843 26.3722 83.4149 24.9872C82.6514 23.5964 82.2696 21.9036 82.2696 19.9091C82.2696 17.9086 82.6514 16.2129 83.4149 14.8221C84.1843 13.4312 85.223 12.3748 86.531 11.6527C87.839 10.9306 89.3097 10.5696 90.9433 10.5696C92.5709 10.5696 94.0387 10.9306 95.3467 11.6527C96.6606 12.3748 97.7023 13.4312 98.4717 14.8221C99.2411 16.2129 99.6258 17.9086 99.6258 19.9091ZM95.1336 19.9091C95.1336 18.7254 94.9649 17.7251 94.6276 16.9084C94.2961 16.0916 93.8167 15.4731 93.1894 15.0529C92.5679 14.6327 91.8192 14.4226 90.9433 14.4226C90.0732 14.4226 89.3245 14.6327 88.6972 15.0529C88.0698 15.4731 87.5874 16.0916 87.2501 16.9084C86.9186 17.7251 86.7529 18.7254 86.7529 19.9091C86.7529 21.0928 86.9186 22.093 87.2501 22.9098C87.5874 23.7266 88.0698 24.3451 88.6972 24.7653C89.3245 25.1855 90.0732 25.3956 90.9433 25.3956C91.8192 25.3956 92.5679 25.1855 93.1894 24.7653C93.8167 24.3451 94.2961 23.7266 94.6276 22.9098C94.9649 22.093 95.1336 21.0928 95.1336 19.9091ZM113.191 10.8182H117.577V22.5458C117.577 23.9012 117.254 25.0819 116.609 26.0881C115.964 27.0883 115.064 27.8636 113.91 28.4141C112.756 28.9586 111.416 29.2308 109.889 29.2308C108.344 29.2308 106.994 28.9586 105.84 28.4141C104.686 27.8636 103.79 27.0883 103.15 26.0881C102.511 25.0819 102.191 23.9012 102.191 22.5458V10.8182H106.586V22.1641C106.586 22.7914 106.722 23.3507 106.994 23.842C107.273 24.3332 107.66 24.7179 108.157 24.9961C108.655 25.2743 109.232 25.4134 109.889 25.4134C110.546 25.4134 111.12 25.2743 111.611 24.9961C112.108 24.7179 112.496 24.3332 112.774 23.842C113.052 23.3507 113.191 22.7914 113.191 22.1641V10.8182ZM120.331 29V10.8182H127.842C129.203 10.8182 130.378 11.0638 131.366 11.555C132.361 12.0404 133.127 12.7388 133.666 13.6502C134.204 14.5558 134.474 15.63 134.474 16.8729C134.474 18.1335 134.198 19.2048 133.648 20.0866C133.097 20.9626 132.316 21.6314 131.304 22.093C130.292 22.5488 129.094 22.7766 127.709 22.7766H122.959V19.3143H126.892C127.555 19.3143 128.108 19.2285 128.552 19.0568C129.002 18.8793 129.342 18.6129 129.573 18.2578C129.804 17.8968 129.919 17.4351 129.919 16.8729C129.919 16.3106 129.804 15.846 129.573 15.479C129.342 15.1062 129.002 14.828 128.552 14.6445C128.102 14.4551 127.549 14.3604 126.892 14.3604H124.726V29H120.331ZM130.567 20.6903L135.095 29H130.301L125.862 20.6903H130.567ZM154.187 16.7575C154.086 16.3846 153.938 16.0561 153.743 15.772C153.548 15.482 153.308 15.2364 153.024 15.0352C152.74 14.8339 152.414 14.683 152.047 14.5824C151.68 14.4759 151.278 14.4226 150.84 14.4226C149.958 14.4226 149.194 14.6357 148.549 15.0618C147.91 15.4879 147.416 16.1094 147.067 16.9261C146.718 17.737 146.543 18.7224 146.543 19.8825C146.543 21.0484 146.712 22.0427 147.049 22.8654C147.386 23.6881 147.875 24.3155 148.514 24.7475C149.153 25.1796 149.928 25.3956 150.84 25.3956C151.645 25.3956 152.325 25.2654 152.882 25.005C153.444 24.7386 153.87 24.3628 154.16 23.8775C154.45 23.3922 154.595 22.821 154.595 22.1641L155.412 22.2617H150.991V19.0568H158.83V21.4627C158.83 23.0903 158.484 24.4841 157.791 25.6442C157.105 26.8042 156.158 27.695 154.95 28.3164C153.749 28.9379 152.367 29.2486 150.804 29.2486C149.07 29.2486 147.546 28.8728 146.232 28.1211C144.918 27.3694 143.894 26.2982 143.161 24.9073C142.427 23.5105 142.06 21.8533 142.06 19.9357C142.06 18.4442 142.282 17.1214 142.725 15.9673C143.169 14.8073 143.788 13.8248 144.581 13.0199C145.38 12.215 146.303 11.6054 147.351 11.1911C148.404 10.7768 149.538 10.5696 150.751 10.5696C151.805 10.5696 152.784 10.7205 153.69 11.0224C154.601 11.3242 155.406 11.7504 156.104 12.3008C156.809 12.8512 157.38 13.5052 157.818 14.2628C158.256 15.0204 158.528 15.8519 158.635 16.7575H154.187ZM172.42 10.8182H176.805V22.5458C176.805 23.9012 176.483 25.0819 175.838 26.0881C175.193 27.0883 174.293 27.8636 173.139 28.4141C171.985 28.9586 170.644 29.2308 169.117 29.2308C167.572 29.2308 166.223 28.9586 165.069 28.4141C163.915 27.8636 163.018 27.0883 162.379 26.0881C161.74 25.0819 161.42 23.9012 161.42 22.5458V10.8182H165.815V22.1641C165.815 22.7914 165.951 23.3507 166.223 23.842C166.501 24.3332 166.889 24.7179 167.386 24.9961C167.883 25.2743 168.46 25.4134 169.117 25.4134C169.774 25.4134 170.348 25.2743 170.839 24.9961C171.337 24.7179 171.724 24.3332 172.002 23.842C172.281 23.3507 172.42 22.7914 172.42 22.1641V10.8182ZM183.954 10.8182V29H179.56V10.8182H183.954ZM193.434 29H186.713V10.8182H193.425C195.277 10.8182 196.872 11.1822 198.21 11.9102C199.553 12.6322 200.589 13.6739 201.317 15.0352C202.045 16.3905 202.409 18.0122 202.409 19.9002C202.409 21.7942 202.045 23.4218 201.317 24.783C200.595 26.1443 199.562 27.1889 198.219 27.9169C196.875 28.639 195.28 29 193.434 29ZM191.108 25.2536H193.265C194.283 25.2536 195.144 25.0819 195.848 24.7386C196.559 24.3894 197.094 23.8242 197.455 23.043C197.822 22.2558 198.006 21.2082 198.006 19.9002C198.006 18.5922 197.822 17.5505 197.455 16.7752C197.088 15.994 196.547 15.4317 195.831 15.0884C195.12 14.7392 194.244 14.5646 193.203 14.5646H191.108V25.2536ZM204.975 29V10.8182H217.652V14.3871H209.369V18.1158H217.004V21.6935H209.369V25.4311H217.652V29H204.975Z" fill="#0094FF"/>
<g clip-path="url(#clip0_2163_3408)">
<path d="M37.5979 24.8809C37.4422 24.7263 37.2809 24.5884 37.1196 24.4504C36.0463 23.5176 35.0063 22.8112 34.3667 22.0385C34.2666 21.9225 34.172 21.7956 34.0719 21.6576C32.2422 19.1188 30.4848 13.5884 35.0118 8.88051C34.7727 10.3431 34.7894 13.1469 36.7526 17.4575C36.7526 17.9156 36.7915 18.3957 36.8471 18.909C37.1307 21.5638 37.3866 23.49 37.5923 24.8754L37.5979 24.8809Z" fill="#EE731B"/>
<path d="M43.0754 8.80324C41.0343 9.20614 36.6296 10.8454 36.752 17.4575C34.7888 13.1524 34.7721 10.3431 35.0113 8.88051C35.2282 8.64318 35.4562 8.42241 35.7064 8.20164C36.1847 7.77113 36.663 7.40686 37.1413 7.09778L43.0754 8.80324Z" fill="#7B1714"/>
<path d="M41.8841 18.0259L42.8407 23.7936L36.7564 17.4575C36.6341 10.8454 41.0332 9.21166 43.0798 8.80324C37.1346 12.5674 41.8618 17.9983 41.8618 17.9983L41.8841 18.0204V18.0259Z" fill="#E73E20"/>
<path d="M44.7414 21.2547C43.9461 24.5994 42.8394 29.1031 42.8394 29.1031V23.7936L41.8828 18.0259C43.0785 19.1408 44.0184 20.2226 44.7414 21.2547Z" fill="url(#paint0_linear_2163_3408)"/>
<path d="M40.8359 36.1292C40.8749 35.8587 40.9138 35.5938 40.9416 35.3344C40.9583 35.2185 40.9639 35.1136 40.975 35.0032C40.9805 34.937 40.9917 34.8652 40.9972 34.799C41.0139 34.6555 41.0195 34.5065 41.0306 34.363L42.8325 29.0976C42.8325 29.0976 43.9448 24.5939 44.7345 21.2547C51.1469 30.3726 40.8359 36.1292 40.8359 36.1292Z" fill="url(#paint1_linear_2163_3408)"/>
<path d="M46.9995 7.09778C45.3477 7.59452 44.0686 8.17404 43.0842 8.80324H43.0786L37.1445 7.09778C38.3458 6.30853 39.536 5.89458 40.6427 5.72348H40.6483C41.933 5.51927 43.1176 5.64069 44.1019 5.86698C45.8649 6.29749 46.9995 7.09778 46.9995 7.09778Z" fill="#110F22"/>
<path d="M44.1026 5.86699C43.1182 5.63518 41.9391 5.51375 40.6489 5.72349H40.6433C40.5599 5.68485 39.9426 5.4696 38.0628 6.05464C37.0506 5.65726 33.2744 4.16705 31.25 3.12391C32.3456 3.22878 33.6248 3.24533 35.1208 3.12391C42.5898 2.51127 44.1081 5.87251 44.1081 5.87251L44.1026 5.86699Z" fill="#F9B218"/>
<path d="M38.059 6.04912C37.197 6.30853 36.068 6.74455 34.6053 7.43446C29.6779 9.75255 25.6458 1.64474 25.5234 0.921719C25.5234 0.921719 26.8804 2.70996 31.2351 3.11839H31.2406C33.2706 4.16153 37.0468 5.65173 38.0534 6.04912H38.059Z" fill="#E73E20"/>
<path d="M34.7984 28.2532L31.9398 32.5527L16.0117 43.0558C16.0673 42.9179 16.1174 42.7744 16.1786 42.6364C16.2342 42.4984 16.2954 42.3549 16.3621 42.2059C16.4844 41.9465 16.6179 41.676 16.7625 41.4111C16.8014 41.3283 16.8459 41.2455 16.896 41.1572C17.035 40.9199 17.1796 40.677 17.3298 40.4287C17.4299 40.2741 17.5244 40.1251 17.6301 39.9706C17.7302 39.816 17.8359 39.656 17.9471 39.5014C17.9471 39.5014 19.9381 37.0012 23.9313 34.0925C24.9712 33.3254 26.1614 32.5306 27.4795 31.7579C28.4194 31.2004 29.4316 30.643 30.5105 30.1131C30.7886 29.9752 31.0666 29.8372 31.3503 29.7102C31.4114 29.6771 31.467 29.6495 31.5282 29.6275C31.9509 29.4288 32.3847 29.2301 32.8296 29.0479C33.2745 28.8492 33.7306 28.6671 34.1922 28.4905C34.3256 28.4298 34.4647 28.3856 34.5926 28.3304C34.6593 28.2973 34.7316 28.2752 34.7984 28.2532Z" fill="url(#paint2_linear_2163_3408)"/>
<path d="M31.9367 32.5527L29.9068 37.2937C28.4107 38.1326 26.8257 39.1592 25.3797 40.3624L15.2634 47.0463C15.2412 46.4723 15.2857 45.8762 15.3858 45.2635C15.3913 45.247 15.3913 45.2415 15.3913 45.2415C15.4247 45.0483 15.4581 44.8717 15.497 44.684C15.5026 44.6675 15.5026 44.6454 15.5137 44.6288C15.5526 44.4357 15.6082 44.248 15.6694 44.0493C15.7028 43.9279 15.7362 43.8065 15.7751 43.6795C15.7918 43.6354 15.8085 43.5967 15.8196 43.5471C15.8251 43.5305 15.8363 43.5084 15.8363 43.4919C15.8807 43.3484 15.9364 43.1993 15.9975 43.0503L31.9256 32.5471L31.9367 32.5527Z" fill="url(#paint3_linear_2163_3408)"/>
<path d="M25.3819 40.3624C22.6902 42.6033 20.4767 45.4733 20.1152 48.9835L17.9184 53.6639C16.5003 51.9639 15.3157 49.7452 15.2656 47.0463L25.3819 40.3624Z" fill="url(#paint4_linear_2163_3408)"/>
<path d="M22.777 57.6212C22.6158 57.5439 20.0241 56.1696 17.9219 53.6639L20.1187 48.9891C19.8461 51.5279 20.5636 54.4035 22.777 57.6212Z" fill="#50C0DA"/>
<path d="M14.4926 41.6098C12.3125 45.9314 11.8954 51.9198 11.8398 55.0216C10.2158 53.2389 8.92558 50.9153 8.70312 47.9625L14.4926 41.6153V41.6098Z" fill="#7B1714"/>
<path d="M22.9761 34.2195L17.7205 38.0664L14.5004 41.6098L8.71095 47.957C8.5886 46.2515 8.81662 44.3363 9.55073 42.1948C9.55073 42.1948 11.5918 35.809 22.9817 34.214L22.9761 34.2195Z" fill="#EE731B"/>
<path d="M19.6092 60C19.3367 59.9172 14.971 58.4712 11.8398 55.0216C11.8955 51.9253 12.3126 45.9314 14.4927 41.6098L17.7128 38.0664L22.9683 34.2195C23.2742 34.1753 23.6024 34.1367 23.9249 34.0981C19.9318 37.0067 17.9408 39.5069 17.9408 39.5069C17.8351 39.6615 17.7239 39.8215 17.6238 39.9761C17.5181 40.1306 17.4236 40.2796 17.3235 40.4342C17.1789 40.677 17.0287 40.9254 16.8897 41.1627C16.8452 41.2455 16.7951 41.3283 16.7562 41.4166C16.6116 41.6871 16.4781 41.952 16.3558 42.2114C16.289 42.3549 16.2223 42.5039 16.1722 42.6419C16.1111 42.7799 16.0554 42.9234 16.0054 43.0613C15.9442 43.2159 15.8886 43.3594 15.8441 43.5029C15.8441 43.5195 15.8385 43.5415 15.8274 43.5581C15.8107 43.6022 15.794 43.6409 15.7829 43.6905C15.744 43.812 15.7051 43.9334 15.6773 44.0603C15.6161 44.259 15.5605 44.4522 15.5215 44.6399C15.516 44.6564 15.516 44.6785 15.5049 44.6951C15.4659 44.8882 15.427 45.0648 15.3992 45.2525C15.3992 45.2525 15.3992 45.258 15.3936 45.2746C15.1934 45.7658 11.9956 54.0502 19.6092 60.011V60Z" fill="#E73E20"/>
<path d="M34.7981 28.2532C34.7314 28.2752 34.6591 28.2973 34.5924 28.3304L25.6495 22.9547L25.1879 22.7615L6.33452 15.1118L1.52384 13.1635L0 7.1585L16.7345 16.2487L21.9011 19.058L23.2525 19.7921L24.1868 20.2944L27.3458 22.6676L34.7981 28.2532Z" fill="url(#paint5_linear_2163_3408)"/>
<path d="M34.1836 28.4905C33.722 28.6671 33.2659 28.8492 32.821 29.0479C32.3761 29.2301 31.9423 29.4288 31.5196 29.6274C31.4585 29.6495 31.4028 29.6826 31.3417 29.7102C31.058 29.8427 30.78 29.9807 30.5019 30.1131L29.9569 29.9917L24.4844 24.627L28.1216 26.073L34.1891 28.485L34.1836 28.4905Z" fill="#7B1714"/>
<path d="M24.3786 28.7168L21.4477 28.0434L11.7429 24.4062L4.0625 16.5247L7.44944 17.8714L17.499 21.8618L24.3786 28.7168Z" fill="#F9B218"/>
<path d="M11.7399 24.4062L3.49782 21.3154L2.03516 15.7189L4.05953 16.5247L11.7399 24.4062Z" fill="#EE731B"/>
<path d="M34.5882 28.3304C34.4547 28.3856 34.3157 28.4298 34.1878 28.4905L28.1202 26.0786L24.483 24.6325L17.4978 21.8618L7.44823 17.8659L6.33594 15.1062L25.1838 22.756L25.6454 22.9491L34.5882 28.3249V28.3304Z" fill="url(#paint6_linear_2163_3408)"/>
<path d="M16.6055 30.4498L10.3766 29.6882L5.92188 25.052L11.6836 26.1613H11.6947L16.6055 30.4498Z" fill="#F9B218"/>
<path d="M23.5746 31.2887L16.6061 30.4498L11.6953 26.1613L18.7473 27.5246L23.5746 31.2887Z" fill="#E73E20"/>
<path d="M30.507 30.1187C29.428 30.6485 28.4158 31.206 27.476 31.7634L23.5774 31.2887L18.75 27.5246L21.4473 28.0434L24.3782 28.7168L29.9619 29.9917L30.507 30.1131V30.1187Z" fill="#7B1714"/>
<path d="M23.2498 19.7921L21.9039 19.058L16.7373 16.2487L9.0625 8.16852V0L13.8342 6.65624L23.2498 19.7921Z" fill="url(#paint7_linear_2163_3408)"/>
<path d="M41.0783 33.3419C41.0783 33.5185 41.0727 33.6841 41.0616 33.8718C41.0561 34.0318 41.0449 34.2029 41.0283 34.3685C41.0116 34.5727 40.9949 34.788 40.9726 35.0087C40.9671 35.1136 40.956 35.224 40.9393 35.3399C40.9059 35.5993 40.8725 35.8697 40.8336 36.1347L31.9297 42.1948C32.091 41.9906 34.6826 38.6735 36.3288 34.4292C36.8238 33.1598 37.2298 31.8076 37.4634 30.4222C37.6413 29.3901 37.7192 28.3359 37.658 27.2873C37.6024 26.3324 37.4355 25.3831 37.113 24.4559C37.2743 24.5939 37.4355 24.7319 37.5913 24.8864C37.7359 25.0244 37.886 25.1624 38.0306 25.3169C38.1307 25.4107 38.2253 25.5101 38.3143 25.6149L38.3309 25.6315C38.3643 25.6646 38.3866 25.6922 38.4144 25.7253C38.5089 25.8247 38.5979 25.9295 38.6869 26.0454C38.7647 26.1227 38.8259 26.2 38.8871 26.2828C39.0261 26.4594 39.1596 26.636 39.2875 26.8237C39.5489 27.2045 39.7936 27.6184 40.0105 28.071C40.283 28.6229 40.5055 29.2245 40.6834 29.8979C40.7446 30.1352 40.8002 30.3781 40.8447 30.632C40.8837 30.8307 40.9226 31.0349 40.9504 31.2501C40.956 31.3108 40.9671 31.3826 40.9726 31.4543C40.9949 31.6475 41.0116 31.8352 41.0338 32.0449C41.0338 32.1277 41.0394 32.2215 41.0505 32.3153C41.0672 32.6465 41.0727 32.9887 41.0727 33.3474L41.0783 33.3419Z" fill="url(#paint8_linear_2163_3408)"/>
<path d="M37.1178 24.4504L36.3782 27.6957L34.7653 35.0087C33.5696 35.4779 31.8066 36.2395 29.9102 37.2937L31.9401 32.5527L34.7987 28.2532L30.5664 19.4334L34.0757 21.6576C34.1758 21.7956 34.2704 21.9281 34.3705 22.0385C35.01 22.8112 36.05 23.5176 37.1234 24.4504H37.1178Z" fill="#110F22"/>
<path d="M34.7988 28.2531L27.3408 22.6676L24.1819 20.2944L23.2476 19.7921L13.832 6.65624L30.1494 19.1629L30.5554 19.4223L30.5665 19.4334L34.7988 28.2531Z" fill="url(#paint9_linear_2163_3408)"/>
<path d="M37.4741 30.4167C37.2405 31.802 36.8345 33.1543 36.3395 34.4237C36.3395 34.4237 35.7389 34.6169 34.7656 35.0032L36.3785 27.6902L37.1181 24.4449C37.4407 25.3721 37.6131 26.3214 37.6632 27.2762C37.7243 28.3249 37.6465 29.3791 37.4685 30.4112L37.4741 30.4167Z" fill="#07101A"/>
<path d="M42.8348 23.7936V29.1031L41.0329 34.3685C41.0496 34.2029 41.0552 34.0318 41.0663 33.8718C41.0719 33.6896 41.083 33.5185 41.083 33.3419C41.083 32.9832 41.0774 32.6355 41.0607 32.3098C41.0552 32.216 41.0441 32.1277 41.0441 32.0394C41.0218 31.8352 41.0051 31.642 40.9829 31.4488C40.9773 31.3715 40.9662 31.3053 40.9606 31.2446C40.9273 31.0293 40.8939 30.8251 40.855 30.6264C40.8105 30.3726 40.7549 30.1297 40.6937 29.8924C40.5157 29.219 40.2933 28.6174 40.0207 28.0655C39.8038 27.6129 39.5591 27.199 39.2978 26.8181C39.1643 26.625 39.0364 26.4483 38.8973 26.2773C38.8361 26.1945 38.775 26.1172 38.6971 26.0399C38.6526 25.9627 38.5803 25.8854 38.5191 25.8192C38.4858 25.7805 38.458 25.7529 38.4246 25.7198C38.3912 25.6867 38.369 25.6591 38.3412 25.626L38.3245 25.6094C38.2411 25.5101 38.141 25.4052 38.0409 25.3114C37.8963 25.1568 37.7461 25.0189 37.6015 24.8809C37.3957 23.4955 37.1399 21.5693 36.8563 18.9145C36.8006 18.4013 36.7617 17.9211 36.7617 17.463L42.846 23.7991L42.8348 23.7936Z" fill="#F9B218"/>
<path d="M29.9538 29.9972L24.3756 28.7168L17.4961 21.8618L24.4813 24.6325L29.9538 29.9972Z" fill="#E73E20"/>
</g>
<defs>
<linearGradient id="paint0_linear_2163_3408" x1="43.4567" y1="18.335" x2="42.5802" y2="26.1684" gradientUnits="userSpaceOnUse">
<stop stop-color="#50C0DA"/>
<stop offset="1" stop-color="#1B499A"/>
</linearGradient>
<linearGradient id="paint1_linear_2163_3408" x1="47.1482" y1="21.1498" x2="41.8698" y2="35.956" gradientUnits="userSpaceOnUse">
<stop stop-color="#50C0DA"/>
<stop offset="0.49" stop-color="#1B499A"/>
<stop offset="1" stop-color="#110F22"/>
</linearGradient>
<linearGradient id="paint2_linear_2163_3408" x1="13.0864" y1="41.7533" x2="33.6428" y2="31.1451" gradientUnits="userSpaceOnUse">
<stop stop-color="#1B499A"/>
<stop offset="1" stop-color="#110F22"/>
</linearGradient>
<linearGradient id="paint3_linear_2163_3408" x1="14.5404" y1="53.5369" x2="28.3913" y2="31.2105" gradientUnits="userSpaceOnUse">
<stop offset="0.23" stop-color="#50C0DA"/>
<stop offset="0.49" stop-color="#1B499A"/>
<stop offset="0.89" stop-color="#110F22"/>
</linearGradient>
<linearGradient id="paint4_linear_2163_3408" x1="18.9306" y1="59.277" x2="20.5576" y2="40.8294" gradientUnits="userSpaceOnUse">
<stop stop-color="#50C0DA"/>
<stop offset="1" stop-color="#1B499A"/>
</linearGradient>
<linearGradient id="paint5_linear_2163_3408" x1="-0.072299" y1="9.71944" x2="29.2374" y2="25.4414" gradientUnits="userSpaceOnUse">
<stop stop-color="#50C0DA"/>
<stop offset="0.49" stop-color="#1B499A"/>
<stop offset="1" stop-color="#110F22"/>
</linearGradient>
<linearGradient id="paint6_linear_2163_3408" x1="5.49616" y1="15.7189" x2="32.8048" y2="27.4929" gradientUnits="userSpaceOnUse">
<stop stop-color="#50C0DA"/>
<stop offset="0.49" stop-color="#1B499A"/>
<stop offset="1" stop-color="#110F22"/>
</linearGradient>
<linearGradient id="paint7_linear_2163_3408" x1="9.08475" y1="4.11186" x2="24.6156" y2="21.2897" gradientUnits="userSpaceOnUse">
<stop stop-color="#50C0DA"/>
<stop offset="0.49" stop-color="#1B499A"/>
<stop offset="1" stop-color="#110F22"/>
</linearGradient>
<linearGradient id="paint8_linear_2163_3408" x1="32.6026" y1="44.5626" x2="38.511" y2="31.134" gradientUnits="userSpaceOnUse">
<stop stop-color="#50C0DA"/>
<stop offset="0.49" stop-color="#1B499A"/>
<stop offset="1" stop-color="#110F22"/>
</linearGradient>
<linearGradient id="paint9_linear_2163_3408" x1="19.5882" y1="9.0792" x2="27.649" y2="21.5207" gradientUnits="userSpaceOnUse">
<stop stop-color="#50C0DA"/>
<stop offset="0.49" stop-color="#1B499A"/>
<stop offset="1" stop-color="#110F22"/>
</linearGradient>
<clipPath id="clip0_2163_3408">
<rect width="47" height="60" fill="white"/>
</clipPath>
</defs>
</svg>
